<svg xmlns="http://www.w3.org/2000/svg" xmlns:xlink="http://www.w3.org/1999/xlink" viewBox="0 0 517.37 357.67"><defs><style>.cls-1{fill:none;}.cls-2{isolation:isolate;}.cls-3{fill:#c3e0f4;}.cls-12,.cls-4{fill:#795fee;}.cls-4,.cls-75{fill-rule:evenodd;}.cls-5{fill:#658ffd;}.cls-6{fill:#0f0c23;}.cls-7{fill:url(#linear-gradient);}.cls-8{fill:url(#linear-gradient-2);}.cls-9{fill:url(#linear-gradient-3);}.cls-10{fill:url(#linear-gradient-4);}.cls-11,.cls-75{fill:#fff;}.cls-13{clip-path:url(#clip-path);}.cls-14{fill:url(#linear-gradient-5);}.cls-15{fill:url(#linear-gradient-6);}.cls-16{fill:url(#linear-gradient-7);}.cls-17{fill:url(#linear-gradient-8);}.cls-18{fill:url(#linear-gradient-9);}.cls-19{fill:url(#linear-gradient-10);}.cls-20{fill:url(#linear-gradient-11);}.cls-21{fill:#0a1123;}.cls-22{fill:url(#linear-gradient-12);}.cls-23{fill:url(#linear-gradient-13);}.cls-24{fill:url(#linear-gradient-14);}.cls-25{fill:url(#linear-gradient-15);}.cls-26{clip-path:url(#clip-path-2);}.cls-27{fill:#db277d;}.cls-28{fill:url(#linear-gradient-16);}.cls-29{fill:url(#linear-gradient-17);}.cls-30{fill:url(#linear-gradient-18);}.cls-31{fill:url(#linear-gradient-19);}.cls-32{fill:url(#linear-gradient-20);}.cls-33{fill:url(#linear-gradient-21);}.cls-34{fill:url(#linear-gradient-22);}.cls-35{fill:url(#linear-gradient-23);}.cls-36{fill:url(#linear-gradient-24);}.cls-37{fill:url(#linear-gradient-25);}.cls-38{clip-path:url(#clip-path-3);}.cls-39{fill:url(#linear-gradient-26);}.cls-40{fill:#fd6007;}.cls-41{fill:url(#linear-gradient-27);}.cls-42{fill:#2148ea;}.cls-43{fill:url(#linear-gradient-28);}.cls-44{fill:url(#linear-gradient-29);}.cls-45{fill:url(#linear-gradient-30);}.cls-46{fill:url(#linear-gradient-31);}.cls-47{fill:url(#linear-gradient-32);}.cls-48{fill:url(#linear-gradient-33);}.cls-49{fill:url(#linear-gradient-34);}.cls-50{fill:#606060;}.cls-51{fill:url(#linear-gradient-35);}.cls-52{fill:url(#linear-gradient-36);}.cls-53{fill:url(#linear-gradient-37);}.cls-54{fill:url(#linear-gradient-38);}.cls-55,.cls-56,.cls-58,.cls-74{mix-blend-mode:multiply;}.cls-55{fill:url(#linear-gradient-39);}.cls-56{fill:url(#linear-gradient-40);}.cls-57{fill:#7f7f7f;}.cls-58{fill:url(#linear-gradient-41);}.cls-59{fill:url(#linear-gradient-42);}.cls-60{fill:#253c6b;}.cls-61{fill:#394f8e;}.cls-62{fill:url(#linear-gradient-43);}.cls-63{fill:url(#linear-gradient-44);}.cls-64{fill:url(#linear-gradient-45);}.cls-65{fill:url(#linear-gradient-46);}.cls-66{fill:url(#linear-gradient-47);}.cls-67{fill:url(#linear-gradient-48);}.cls-68{fill:url(#linear-gradient-49);}.cls-69{fill:url(#linear-gradient-50);}.cls-70{fill:url(#linear-gradient-51);}.cls-71{fill:url(#linear-gradient-52);}.cls-72{fill:url(#linear-gradient-53);}.cls-73{fill:url(#linear-gradient-54);}.cls-74{fill:url(#linear-gradient-55);}</style><linearGradient id="linear-gradient" x1="447.29" y1="423.52" x2="447.29" y2="393.55" gradientUnits="userSpaceOnUse"><stop offset="0" stop-color="#ffd1c1"/><stop offset="0.28" stop-color="#ffcebe"/><stop offset="0.51" stop-color="#ffc6b4"/><stop offset="0.72" stop-color="#ffb8a2"/><stop offset="0.92" stop-color="#ffa48b"/><stop offset="1" stop-color="#ff9a7f"/></linearGradient><linearGradient id="linear-gradient-2" x1="427.3" y1="414.24" x2="466.8" y2="414.24" gradientUnits="userSpaceOnUse"><stop offset="0" stop-color="#071786"/><stop offset="0.15" stop-color="#05136b"/><stop offset="0.32" stop-color="#041055"/><stop offset="0.51" stop-color="#030e45"/><stop offset="0.72" stop-color="#020c3b"/><stop offset="1" stop-color="#020c38"/></linearGradient><linearGradient id="linear-gradient-3" x1="412.62" y1="431.87" x2="412.62" y2="400.66" gradientTransform="translate(86.46 -82.42) rotate(11.71)" xlink:href="#linear-gradient"/><linearGradient id="linear-gradient-4" x1="384.16" y1="415.31" x2="423.37" y2="415.31" xlink:href="#linear-gradient-2"/><clipPath id="clip-path" transform="translate(-116.32 -71.16)"><rect class="cls-1" x="247.09" y="169.65" width="90.76" height="59.62" rx="3.21" ry="3.21"/></clipPath><linearGradient id="linear-gradient-5" x1="10539.81" y1="1980.35" x2="10530.16" y2="2007.68" gradientTransform="matrix(-0.99, -0.16, -0.16, 0.99, 10987.86, -42.58)" gradientUnits="userSpaceOnUse"><stop offset="0" stop-color="#ffd1c1"/><stop offset="0.29" stop-color="#ffcebe"/><stop offset="0.51" stop-color="#ffc6b4"/><stop offset="0.72" stop-color="#ffb8a3"/><stop offset="0.92" stop-color="#ffa58c"/><stop offset="1" stop-color="#ff9a7f"/></linearGradient><linearGradient id="linear-gradient-6" x1="10324.48" y1="1636.38" x2="10314.84" y2="1663.71" gradientTransform="translate(-8383.54 6001.36) rotate(-42.76)" xlink:href="#linear-gradient-5"/><linearGradient id="linear-gradient-7" x1="277.24" y1="230.31" x2="308.57" y2="230.31" gradientUnits="userSpaceOnUse"><stop offset="0" stop-color="#f9fbfc"/><stop offset="0.31" stop-color="#f0f5fd"/><stop offset="0.8" stop-color="#d8e3fe"/><stop offset="1" stop-color="#cddbff"/></linearGradient><linearGradient id="linear-gradient-8" x1="175.86" y1="127.35" x2="176.11" y2="118.78" gradientUnits="userSpaceOnUse"><stop offset="0" stop-color="#ffd1c1"/><stop offset="0.3" stop-color="#ffc4b1"/><stop offset="0.88" stop-color="#ffa288"/><stop offset="1" stop-color="#ff9a7f"/></linearGradient><linearGradient id="linear-gradient-9" x1="175.76" y1="127.35" x2="176.01" y2="118.77" xlink:href="#linear-gradient-8"/><linearGradient id="linear-gradient-10" x1="2222.43" y1="-1984.68" x2="2236.3" y2="-1984.68" gradientTransform="matrix(0.81, -0.58, 0.58, 0.81, -341.91, 3092.86)" gradientUnits="userSpaceOnUse"><stop offset="0" stop-color="#ffd1c1"/><stop offset="0.49" stop-color="#ffcfbf"/><stop offset="0.66" stop-color="#ffcab8"/><stop offset="0.79" stop-color="#ffc0ad"/><stop offset="0.89" stop-color="#ffb29c"/><stop offset="0.98" stop-color="#ffa086"/><stop offset="1" stop-color="#ff9a7f"/></linearGradient><linearGradient id="linear-gradient-11" x1="2226.52" y1="-1967.53" x2="2207.54" y2="-1967.53" xlink:href="#linear-gradient-10"/><linearGradient id="linear-gradient-12" x1="282.97" y1="180.71" x2="302.09" y2="180.71" gradientUnits="userSpaceOnUse"><stop offset="0" stop-color="#ffd1c1"/><stop offset="0.32" stop-color="#ffcfbe"/><stop offset="0.54" stop-color="#ffc7b5"/><stop offset="0.73" stop-color="#ffbaa6"/><stop offset="0.9" stop-color="#ffa990"/><stop offset="1" stop-color="#ff9a7f"/></linearGradient><linearGradient id="linear-gradient-13" x1="302.73" y1="182.76" x2="302.73" y2="174.54" gradientTransform="matrix(1, 0, 0, 1, 0, 0)" xlink:href="#linear-gradient-10"/><linearGradient id="linear-gradient-14" x1="175.09" y1="107.43" x2="177.23" y2="107.43" gradientUnits="userSpaceOnUse"><stop offset="0" stop-color="#eea281"/><stop offset="0.25" stop-color="#ee9c7b"/><stop offset="0.58" stop-color="#ed8a6c"/><stop offset="0.97" stop-color="#ec6e52"/><stop offset="1" stop-color="#ec6b50"/></linearGradient><linearGradient id="linear-gradient-15" x1="282.33" y1="182.69" x2="282.33" y2="174.47" gradientTransform="matrix(1, 0, 0, 1, 0, 0)" xlink:href="#linear-gradient-10"/><clipPath id="clip-path-2" transform="translate(-116.32 -71.16)"><rect class="cls-1" x="415.22" y="163.16" width="100.29" height="65.88" rx="3.21" ry="3.21"/></clipPath><linearGradient id="linear-gradient-16" x1="10375.71" y1="1945.21" x2="10362.01" y2="1984.04" xlink:href="#linear-gradient-5"/><linearGradient id="linear-gradient-17" x1="347.74" y1="124.04" x2="348.01" y2="114.57" xlink:href="#linear-gradient-8"/><linearGradient id="linear-gradient-18" x1="347.62" y1="124.04" x2="347.9" y2="114.56" xlink:href="#linear-gradient-8"/><linearGradient id="linear-gradient-19" x1="10416.73" y1="1804.22" x2="10406.08" y2="1834.42" gradientTransform="matrix(0.98, -0.21, 0.21, 0.98, -10069.53, 669.86)" xlink:href="#linear-gradient-5"/><linearGradient id="linear-gradient-20" x1="2742.06" y1="-1828.8" x2="2755.12" y2="-1828.8" gradientTransform="matrix(-0.87, 0.48, 0.48, 0.87, 3755.78, 482.28)" xlink:href="#linear-gradient-10"/><linearGradient id="linear-gradient-21" x1="2746.58" y1="-1814.83" x2="2725.6" y2="-1814.83" gradientTransform="matrix(-0.87, 0.48, 0.48, 0.87, 3755.78, 482.28)" xlink:href="#linear-gradient-10"/><linearGradient id="linear-gradient-22" x1="453.88" y1="175.1" x2="475.01" y2="175.1" xlink:href="#linear-gradient-12"/><linearGradient id="linear-gradient-23" x1="475.71" y1="177.8" x2="475.71" y2="168.72" gradientTransform="matrix(1, 0, 0, 1, 0, 0)" xlink:href="#linear-gradient-10"/><linearGradient id="linear-gradient-24" x1="346.89" y1="105.82" x2="349.25" y2="105.82" xlink:href="#linear-gradient-14"/><linearGradient id="linear-gradient-25" x1="453.17" y1="177.72" x2="453.17" y2="168.64" gradientTransform="matrix(1, 0, 0, 1, 0, 0)" xlink:href="#linear-gradient-10"/><clipPath id="clip-path-3" transform="translate(-116.32 -71.16)"><rect class="cls-1" x="187.37" y="289.41" width="105.11" height="69.05" rx="3.21" ry="3.21"/></clipPath><linearGradient id="linear-gradient-26" x1="10415.06" y1="1999.85" x2="10403.89" y2="2031.5" gradientTransform="translate(-10277.23 -814.03) rotate(-4.71)" xlink:href="#linear-gradient-5"/><linearGradient id="linear-gradient-27" x1="10552.84" y1="2017.68" x2="10541.67" y2="2049.33" gradientTransform="matrix(-0.73, -0.68, -0.68, 0.73, 9338.72, 6001.36)" xlink:href="#linear-gradient-5"/><linearGradient id="linear-gradient-28" x1="2492.27" y1="-1631.71" x2="2508.32" y2="-1631.71" gradientTransform="matrix(-0.81, -0.58, -0.58, 0.81, 1297.1, 3092.86)" xlink:href="#linear-gradient-10"/><linearGradient id="linear-gradient-29" x1="2497" y1="-1619.94" x2="2475.02" y2="-1619.94" gradientTransform="matrix(-0.81, -0.58, -0.58, 0.81, 1297.1, 3092.86)" xlink:href="#linear-gradient-10"/><linearGradient id="linear-gradient-30" x1="123.42" y1="252.19" x2="123.71" y2="242.26" xlink:href="#linear-gradient-8"/><linearGradient id="linear-gradient-31" x1="123.3" y1="252.19" x2="123.59" y2="242.26" xlink:href="#linear-gradient-8"/><linearGradient id="linear-gradient-32" x1="3139.11" y1="-2037.75" x2="3155.17" y2="-2037.75" gradientTransform="matrix(-0.63, 0.78, 0.78, 0.63, 3784.77, -828.63)" xlink:href="#linear-gradient-10"/><linearGradient id="linear-gradient-33" x1="3143.85" y1="-2017.9" x2="3121.87" y2="-2017.9" gradientTransform="matrix(-0.63, 0.78, 0.78, 0.63, 3784.77, -828.63)" xlink:href="#linear-gradient-10"/><linearGradient id="linear-gradient-34" x1="92.2" y1="236.79" x2="92.2" y2="285.77" gradientUnits="userSpaceOnUse"><stop offset="0" stop-color="#fff"/><stop offset="0.43" stop-color="#fffefd"/><stop offset="0.58" stop-color="#fff8f6"/><stop offset="0.69" stop-color="#ffefeb"/><stop offset="0.78" stop-color="#ffe2da"/><stop offset="0.86" stop-color="#ffd0c4"/><stop offset="0.92" stop-color="#ffbba8"/><stop offset="0.98" stop-color="#ffa289"/><stop offset="1" stop-color="#ff9a7f"/></linearGradient><linearGradient id="linear-gradient-35" x1="229.08" y1="302.28" x2="251.22" y2="302.28" xlink:href="#linear-gradient-12"/><linearGradient id="linear-gradient-36" x1="251.96" y1="305.11" x2="251.96" y2="295.59" gradientTransform="matrix(1, 0, 0, 1, 0, 0)" xlink:href="#linear-gradient-10"/><linearGradient id="linear-gradient-37" x1="122.53" y1="233.09" x2="125.01" y2="233.09" xlink:href="#linear-gradient-14"/><linearGradient id="linear-gradient-38" x1="228.33" y1="305.02" x2="228.33" y2="295.51" gradientTransform="matrix(1, 0, 0, 1, 0, 0)" xlink:href="#linear-gradient-10"/><linearGradient id="linear-gradient-39" x1="313.76" y1="285.49" x2="363.86" y2="285.49" gradientUnits="userSpaceOnUse"><stop offset="0" stop-color="#e0c748"/><stop offset="0.17" stop-color="#e0c850"/><stop offset="0.43" stop-color="#dfc964"/><stop offset="0.75" stop-color="#dfcc86"/><stop offset="1" stop-color="#decfa6"/></linearGradient><linearGradient id="linear-gradient-40" x1="330.2" y1="286.49" x2="365.22" y2="286.49" xlink:href="#linear-gradient-39"/><linearGradient id="linear-gradient-41" x1="325.41" y1="347.71" x2="349.55" y2="347.71" xlink:href="#linear-gradient-39"/><linearGradient id="linear-gradient-42" x1="2286.1" y1="-1731.44" x2="2305.48" y2="-1731.44" gradientTransform="matrix(0.95, 0.31, -0.31, 0.95, -2282.29, 1187.98)" xlink:href="#linear-gradient-10"/><linearGradient id="linear-gradient-43" x1="362.18" y1="316.44" x2="362.18" y2="242.31" gradientUnits="userSpaceOnUse"><stop offset="0" stop-color="#ffd1c1"/><stop offset="0.22" stop-color="#fcb"/><stop offset="0.51" stop-color="#ffbeab"/><stop offset="0.83" stop-color="#ffa890"/><stop offset="1" stop-color="#ff9a7f"/></linearGradient><linearGradient id="linear-gradient-44" x1="253.69" y1="187.99" x2="253.69" y2="178.11" gradientUnits="userSpaceOnUse"><stop offset="0" stop-color="#071786"/><stop offset="0.2" stop-color="#071681"/><stop offset="0.45" stop-color="#061472"/><stop offset="0.72" stop-color="#04115a"/><stop offset="1" stop-color="#020c38"/></linearGradient><linearGradient id="linear-gradient-45" x1="266.82" y1="215.07" x2="243.7" y2="201.72" gradientUnits="userSpaceOnUse"><stop offset="0" stop-color="#071786"/><stop offset="0.2" stop-color="#07167e"/><stop offset="0.5" stop-color="#051369"/><stop offset="0.86" stop-color="#030e47"/><stop offset="1" stop-color="#020c38"/></linearGradient><linearGradient id="linear-gradient-46" x1="363.96" y1="224.04" x2="363.96" y2="247.7" gradientTransform="matrix(1, 0, 0, 1, 0, 0)" xlink:href="#linear-gradient-5"/><linearGradient id="linear-gradient-47" x1="358.03" y1="223.23" x2="383.32" y2="223.23" gradientTransform="matrix(1, 0, 0, 1, 0, 0)" xlink:href="#linear-gradient-10"/><linearGradient id="linear-gradient-48" x1="263.43" y1="151.26" x2="268.59" y2="151.26" xlink:href="#linear-gradient-14"/><linearGradient id="linear-gradient-49" x1="360.76" y1="218.87" x2="354.85" y2="222.28" gradientUnits="userSpaceOnUse"><stop offset="0" stop-color="#ffd1c1"/><stop offset="0.23" stop-color="#ffcdbc"/><stop offset="0.49" stop-color="#ffc1ae"/><stop offset="0.78" stop-color="#ffad96"/><stop offset="1" stop-color="#ff9a7f"/></linearGradient><linearGradient id="linear-gradient-50" x1="388.56" y1="295.68" x2="409.78" y2="295.68" gradientTransform="translate(113.83 -146.14) rotate(18.41)" xlink:href="#linear-gradient-10"/><linearGradient id="linear-gradient-51" x1="-667.13" y1="251.95" x2="-667.13" y2="238.15" gradientTransform="translate(1039.6)" gradientUnits="userSpaceOnUse"><stop offset="0" stop-color="#e7e6ff"/><stop offset="0.34" stop-color="#c9d2f8"/><stop offset="0.76" stop-color="#aabdf1"/><stop offset="1" stop-color="#9eb5ee"/></linearGradient><linearGradient id="linear-gradient-52" x1="-663.55" y1="250.06" x2="-663.55" y2="237.36" gradientTransform="translate(923.28 -71.16)" gradientUnits="userSpaceOnUse"><stop offset="0" stop-color="#f9fbfc"/><stop offset="1" stop-color="#cddbff"/></linearGradient><linearGradient id="linear-gradient-53" x1="-678.84" y1="253.71" x2="-678.84" y2="237.28" gradientTransform="translate(923.28 -71.16)" xlink:href="#linear-gradient-7"/><linearGradient id="linear-gradient-54" x1="-671.3" y1="251.95" x2="-671.3" y2="247.73" gradientTransform="translate(923.28 -71.16)" xlink:href="#linear-gradient-51"/><linearGradient id="linear-gradient-55" x1="476.05" y1="283.09" x2="485.24" y2="283.09" xlink:href="#linear-gradient-39"/></defs><title>2724268</title><g class="cls-2"><g id="OBJECTS"><path class="cls-3" d="M549.07,428.84H267.51c-1.75,0-3.16-1.83-3.16-4.09h0c0-2.25,1.41-4.08,3.16-4.08H549.07c1.75,0,3.16,1.83,3.16,4.08h0C552.23,427,550.82,428.84,549.07,428.84Z" transform="translate(-116.32 -71.16)"/><path class="cls-4" d="M165.1,336.27l439.19-9.94c14.06-49.2,57.25-110.7,2.13-159.28C538.77,107.42,446,182.81,431.91,145.68S387.7,66.58,320.44,80s-71.13,86.23-93,104-59.07,4-85.91,43C122.63,254.4,137,311,165.1,336.27Z" transform="translate(-116.32 -71.16)"/><path class="cls-5" d="M176.14,408.8H555.49A59.38,59.38,0,0,0,603,385c21-28,39.73-73.89,4.15-129.81-59.65-93.71,2.36-141-73.37-175.9s-79.23,54.55-145.49,41.46-83.24-51.34-138.55-11.35c-48,34.7-16.44,157.58-96.47,185.67a52.13,52.13,0,0,0-15.71,9C94.92,339.24,120.87,408.8,176.14,408.8Z" transform="translate(-116.32 -71.16)"/><polygon class="cls-6" points="323.63 347.77 319.21 235.71 312.62 235.71 318.8 347.77 323.63 347.77"/><path class="cls-7" d="M464.67,417l-.12-.09a7.39,7.39,0,0,0-1.42-.93l.55.19-.56-.2a16.73,16.73,0,0,0-3.41-1.24l-1.12-.29-3.76-1.23-.2-.09c-.77-.55-8.86-5.91-12.24-8.81l-.29-.26a59.6,59.6,0,0,1-.55-10.47l-12.2-.05s1.77,7.32,1.54,11.22a8.27,8.27,0,0,1-.65,1.51c-.15.27-.31.53-.45.8s-.3.55-.43.84a24.35,24.35,0,0,0-1.17,2.66,12.46,12.46,0,0,0-.4,3.22c0,.36,0,.72,0,1.08a4.05,4.05,0,0,0,.44,2,4.34,4.34,0,0,0,2.68,1.73c2.14.63,4.37.86,6.53,1.39,4,1,8,2.54,12.15,3.19,4.57.73,9.17-.08,13.76-.22,1.21,0,3.07-.46,3.41-1.83S465.62,417.85,464.67,417Z" transform="translate(-116.32 -71.16)"/><path class="cls-8" d="M466.8,420.61a2.74,2.74,0,0,0-.09-.55c-.06-.2-.13-.39-.21-.59s-.19-.39-.3-.58l-.18-.28a8,8,0,0,0-.88-1.13l-.28-.28h0l-.18-.17-.12-.09c-.14-.12-.29-.23-.44-.34l-.19-.13-.22-.14c-.19-.11-.37-.22-.57-.32l.55.19-.56-.2a11.8,11.8,0,0,0-1.67-.71l-.79-.26-.14,0-.81-.23-1.12-.29-3.76-1.23-.11-.06-.09,0c-.61-.44-6.8-4.91-11-8.19-2.63,3.86-10.12,4.37-14.14,1.86a6,6,0,0,1-.49,1c-.33.73-.8,1.38-1.07,2.13-.05.13-.09.26-.13.4a6.09,6.09,0,0,0-.19.79c0,.21-.07.42-.1.63s-.08.58-.1.86,0,.31,0,.46c-.05.75-.05,1.41,0,1.81a5.32,5.32,0,0,0,.09,1.05,2.38,2.38,0,0,0,.05.26,3.19,3.19,0,0,0,.29.72,2.82,2.82,0,0,0,.51.63l.31.25a6.34,6.34,0,0,0,1.87.85c1.07.31,2.63.53,3.73.73l1.64.31c.55.11,1.09.22,1.63.35,1.75.43,3.5,1,5.26,1.5,1.26.37,2.53.74,3.81,1.06,1,.25,2,.47,3.08.63.28,0,.57.09.85.12l.86.09c.55,0,1.11.07,1.66.08h.92c.86,0,1.72,0,2.58-.08,2.3-.13,4.59-.37,6.89-.44a5.92,5.92,0,0,0,1.26-.17,2.6,2.6,0,0,0,2.15-1.66,1.91,1.91,0,0,0,.05-.54Zm-8.27-6.16-.91-.24-.08,0a17,17,0,0,1-2.7-1h0Z" transform="translate(-116.32 -71.16)"/><path class="cls-9" d="M421.93,421.28l-.1-.12a8.21,8.21,0,0,0-1.25-1.25l.52.31-.53-.32a17.32,17.32,0,0,0-3.21-2l-1.09-.54-3.57-2.05-.19-.13c-.66-.73-7.78-7.9-10.61-11.58l-.24-.32a62.6,62.6,0,0,1,1.65-10.79l-12.43-2.63s.26,7.84-.8,11.76a8.41,8.41,0,0,1-1,1.41l-.62.72a8.46,8.46,0,0,0-.61.76A24,24,0,0,0,386.1,407a13.31,13.31,0,0,0-1.1,3.2c-.08.36-.17.73-.23,1.09a4.31,4.31,0,0,0,0,2.17,4.59,4.59,0,0,0,2.38,2.33c2,1.09,4.27,1.8,6.36,2.8,3.86,1.84,7.64,4.28,11.71,5.82,4.51,1.7,9.37,1.86,14.08,2.68,1.24.22,3.23.18,3.87-1.14S422.73,422.32,421.93,421.28Z" transform="translate(-116.32 -71.16)"/><path class="cls-10" d="M423.34,425.39a2.85,2.85,0,0,0,0-.59c0-.21-.05-.42-.09-.64a4.84,4.84,0,0,0-.19-.65c0-.11-.07-.22-.11-.33a8.69,8.69,0,0,0-.67-1.33c-.07-.13-.15-.24-.22-.35h0a1.91,1.91,0,0,0-.15-.21l-.1-.12a5.46,5.46,0,0,0-.38-.44l-.16-.17-.2-.19c-.17-.16-.33-.31-.51-.45l.52.31-.53-.32a12.23,12.23,0,0,0-1.55-1.08l-.76-.43-.13-.07c-.25-.14-.51-.27-.77-.4l-1.09-.54-3.57-2.05-.1-.08-.09-.05c-.53-.58-5.89-6.44-9.5-10.68-3.5,3.37-11.24,2.32-14.81-1.1a6.26,6.26,0,0,1-.71.91c-.49.67-1.11,1.24-1.55,1.95l-.21.37a7.82,7.82,0,0,0-.36.77l-.24.62c-.1.29-.19.58-.28.86s-.09.31-.13.46c-.21.76-.36,1.43-.43,1.83a6.74,6.74,0,0,0-.13,1.1v.27a3.12,3.12,0,0,0,.14.8,2.5,2.5,0,0,0,.39.74,2.1,2.1,0,0,0,.26.33,6.41,6.41,0,0,0,1.73,1.26c1,.55,2.57,1.1,3.64,1.54.54.22,1.08.43,1.61.66s1.07.45,1.59.7c1.69.81,3.36,1.73,5.05,2.64,1.21.65,2.42,1.29,3.66,1.88,1,.48,2,.92,3,1.3.28.11.57.21.85.3s.57.19.86.27c.55.16,1.11.31,1.67.44l.94.2c.87.18,1.76.33,2.65.46,2.37.35,4.76.6,7.11,1a6.81,6.81,0,0,0,1.32.1,2.75,2.75,0,0,0,2.55-1.24,1.88,1.88,0,0,0,.16-.54Zm-7.13-8-.87-.43-.07,0a16.15,16.15,0,0,1-2.56-1.55h0Z" transform="translate(-116.32 -71.16)"/><path class="cls-11" d="M335,233.26H249.93a6.83,6.83,0,0,1-6.82-6.82V172.49a6.83,6.83,0,0,1,6.82-6.82H335a6.83,6.83,0,0,1,6.82,6.82v53.95A6.83,6.83,0,0,1,335,233.26Zm-83.95-8h82.81V173.63H251.07Z" transform="translate(-116.32 -71.16)"/><path class="cls-11" d="M512.41,233.39H418.32a7.45,7.45,0,0,1-7.44-7.44V166.26a7.45,7.45,0,0,1,7.44-7.44h94.09a7.45,7.45,0,0,1,7.45,7.44V226A7.45,7.45,0,0,1,512.41,233.39Zm-92.84-8.69h91.59V167.51H419.57Z" transform="translate(-116.32 -71.16)"/><path class="cls-11" d="M289.64,362.67H190.53a7.22,7.22,0,0,1-7.21-7.21v-63a7.23,7.23,0,0,1,7.21-7.21h99.11a7.22,7.22,0,0,1,7.21,7.21v63A7.21,7.21,0,0,1,289.64,362.67Zm-97.9-8.42h96.69V293.62H191.74Z" transform="translate(-116.32 -71.16)"/><rect class="cls-12" x="130.78" y="98.49" width="90.76" height="59.62" rx="3.21" ry="3.21"/><g class="cls-13"><rect class="cls-11" x="170.09" y="118.84" width="11.88" height="4.04"/><path class="cls-14" d="M269.38,209.13a8.68,8.68,0,0,0-.55,1.1,68.33,68.33,0,0,0-2.79,8.09,90.76,90.76,0,0,0-2.72,10.8,18.2,18.2,0,0,0-.21,5.61,4.41,4.41,0,0,0,1.1,2.55c1.23,1.19,3.3.76,4.48-.45s1.55-2.83,2.06-4.38c2-6,3.42-12.2,5.11-18.28a9.44,9.44,0,0,0,.5-3.2c-.24-2.92-4.2-4.44-6.29-2.66A3.42,3.42,0,0,0,269.38,209.13Z" transform="translate(-116.32 -71.16)"/><path class="cls-11" d="M272.27,197.32c-4.32,2.51-6.94,16.21-6.94,16.21l12.76,3-.78-21.3C277,195.3,272.37,197.26,272.27,197.32Z" transform="translate(-116.32 -71.16)"/><path class="cls-15" d="M306.18,195.34a8.16,8.16,0,0,1,1.07.61,67.91,67.91,0,0,1,6.78,5.22,88.37,88.37,0,0,1,8.22,7.5,17.94,17.94,0,0,1,3.27,4.57A4.39,4.39,0,0,1,326,216c-.37,1.67-2.33,2.46-4,2.1a10.82,10.82,0,0,1-4.13-2.52c-4.94-3.91-9.59-8.3-14.35-12.44a9.31,9.31,0,0,1-2.17-2.39c-1.42-2.57,1.05-6,3.77-5.69A3.41,3.41,0,0,1,306.18,195.34Z" transform="translate(-116.32 -71.16)"/><path class="cls-11" d="M303,194.06c4.94-.76,15.59,8.24,15.59,8.24l-8,10.39-12.78-17.05C298.1,195.47,302.92,194.08,303,194.06Z" transform="translate(-116.32 -71.16)"/><path class="cls-11" d="M292.78,191.74h-.11c-8,.06-16.3,3.91-16.3,3.91l.12,1.76q.45,6.81.91,13.6c.18,2.77.36,5.53.55,8.3.2,2.95.57,5.51-.32,8.4a3.83,3.83,0,0,0-.21,2.69,3.19,3.19,0,0,0,1.63,1.32c1.24.59,2.47,1.18,3.75,1.64,6.2,2.26,13,1.41,19.47.23,2.06-.37,4.28-.87,5.67-2.52a2.66,2.66,0,0,0,.54-.92,4.23,4.23,0,0,0-.31-2.44,17.12,17.12,0,0,1-.52-2.14c-.57-3.25-.12-6.68.09-9.95l.63-9.37c.24-3.53.47-7.07.71-10.6C309.08,195.65,300.8,191.8,292.78,191.74Z" transform="translate(-116.32 -71.16)"/><path class="cls-16" d="M307.72,225.84H278.05a12.17,12.17,0,0,1-.42,1.87,3.83,3.83,0,0,0-.21,2.69,3.19,3.19,0,0,0,1.63,1.32c1.24.59,2.47,1.18,3.75,1.64,6.2,2.26,13,1.41,19.47.23,2.06-.37,4.28-.87,5.67-2.52a2.66,2.66,0,0,0,.54-.92,4.23,4.23,0,0,0-.31-2.44A17,17,0,0,1,307.72,225.84Z" transform="translate(-116.32 -71.16)"/><polygon class="cls-17" points="176.04 129.66 181.2 120.95 170.89 120.95 176.04 129.66"/><path class="cls-11" d="M291.29,199,289.22,198l-2.62-7.61S291.33,198.88,291.29,199Z" transform="translate(-116.32 -71.16)"/><polygon class="cls-11" points="170.28 119.18 172.9 126.8 169.29 129.04 168.87 119.34 170.09 118.84 170.28 119.18"/><path class="cls-11" d="M293.36,199l2.35-1,2.35-7.72S293.33,198.88,293.36,199Z" transform="translate(-116.32 -71.16)"/><polygon class="cls-11" points="181.75 119.18 179.4 126.9 182.74 129.04 183.15 119.34 181.93 118.84 181.75 119.18"/><rect class="cls-18" x="171.99" y="114.7" width="8.05" height="7.46"/><path class="cls-19" d="M320.1,183l1.4-8.31a.76.76,0,0,1,.62-.64,1.78,1.78,0,0,1,1.47.35c.78.6,2.34.49,2.61,1.33s.24,4.88.34,6.36-1.55,3.08-1.56,4.51.11,4.89.11,4.89l-5.06-.58,0-4.11a11,11,0,0,1-2.07-5.75.46.46,0,0,1,.86-.24Z" transform="translate(-116.32 -71.16)"/><path class="cls-20" d="M325.82,217.82s-6.74.3-7.3-4.26S320,190.63,320,190.63l5,.19S329.14,213.81,325.82,217.82Z" transform="translate(-116.32 -71.16)"/></g><path class="cls-21" d="M299.64,163.7s13.27-3.19.12,22.9h-15s-3.48-1.73-3.93-11.67c0,0-4.67-7.61,2.15-12.07C286.78,160.38,298.14,155.92,299.64,163.7Z" transform="translate(-116.32 -71.16)"/><path class="cls-22" d="M284.83,171.81l-1.86.39s.9,13.67,3.19,15.85a24,24,0,0,0,6.37,2.34,24.07,24.07,0,0,0,6.36-2.34c2.29-2.18,3.2-15.85,3.2-15.85l-1.86-.39A38.76,38.76,0,0,0,284.83,171.81Z" transform="translate(-116.32 -71.16)"/><polygon class="cls-21" points="183.67 100.28 184.71 108.85 186.14 99.89 183.67 100.28"/><path class="cls-23" d="M304.61,175.61a5.8,5.8,0,0,1-4,7.15l1.2-7.46A1.56,1.56,0,0,1,304.61,175.61Z" transform="translate(-116.32 -71.16)"/><polygon class="cls-24" points="176.15 103.98 175.09 109.87 176.19 110.87 177.23 109.77 176.15 103.98"/><path class="cls-25" d="M280.45,175.54a5.79,5.79,0,0,0,4,7.15l-1.2-7.46A1.56,1.56,0,0,0,280.45,175.54Z" transform="translate(-116.32 -71.16)"/><rect class="cls-12" x="298.91" y="92" width="100.29" height="65.88" rx="3.21" ry="3.21"/><g class="cls-26"><rect class="cls-27" x="341.37" y="114.64" width="13.13" height="4.46"/><path class="cls-28" d="M439.44,200.66a9.83,9.83,0,0,0-.62,1.21,75.49,75.49,0,0,0-3.07,8.95c-1.17,3.92-5.16,17.66-5.83,21.72a20.16,20.16,0,0,0-.23,6.2,4.92,4.92,0,0,0,1.21,2.81c1.36,1.32,3.65.85,5-.48s1.72-3.14,2.28-4.85c2.17-6.61,6.6-23.28,8.47-30a10.13,10.13,0,0,0,.54-3.53c-.25-3.23-4.63-4.9-6.94-2.94A3.72,3.72,0,0,0,439.44,200.66Z" transform="translate(-116.32 -71.16)"/><path class="cls-27" d="M442.06,193.88c-4.78,2.78-7.67,17.91-7.67,17.91l14.11,3.36-.87-23.53C447.28,191.66,442.17,193.81,442.06,193.88Z" transform="translate(-116.32 -71.16)"/><path class="cls-27" d="M464.72,187.71h-.12c-8.86.06-18,4.31-18,4.31,0,.65.09,1.31.13,2q.51,7.5,1,15c.21,3.06.41,6.11.62,9.17.21,3.26.63,6.09-.35,9.28a4.23,4.23,0,0,0-.24,3,3.5,3.5,0,0,0,1.81,1.46c1.36.65,2.72,1.3,4.13,1.82,6.86,2.49,14.37,1.55,21.52.25,2.28-.41,4.72-1,6.26-2.78a3.09,3.09,0,0,0,.6-1,4.71,4.71,0,0,0-.34-2.7,18.87,18.87,0,0,1-.57-2.36c-.64-3.59-.14-7.38.1-11l.69-10.35.78-11.72S473.58,187.78,464.72,187.71Z" transform="translate(-116.32 -71.16)"/><polygon class="cls-29" points="347.94 126.59 353.64 116.97 342.25 116.97 347.94 126.59"/><path class="cls-27" d="M463.08,195.76l-2.29-1.16-2.9-8.42S463.12,195.61,463.08,195.76Z" transform="translate(-116.32 -71.16)"/><polygon class="cls-27" points="341.57 115.02 344.47 123.43 340.48 125.91 340.02 115.18 341.37 114.64 341.57 115.02"/><path class="cls-27" d="M465.37,195.76l2.59-1,2.6-8.53S465.33,195.61,465.37,195.76Z" transform="translate(-116.32 -71.16)"/><polygon class="cls-27" points="354.24 115.02 351.65 123.54 355.34 125.91 355.8 115.18 354.45 114.64 354.24 115.02"/><rect class="cls-30" x="343.47" y="110.06" width="8.89" height="8.25"/><path class="cls-31" d="M488.91,199.64a9.65,9.65,0,0,1,.68,1.17,76.93,76.93,0,0,1,3.55,8.77,99.8,99.8,0,0,1,3.64,11.75,19.76,19.76,0,0,1,.57,6.17,4.9,4.9,0,0,1-1.06,2.88c-1.29,1.39-3.6,1-5-.22s-1.88-3-2.54-4.71c-2.52-6.49-4.49-13.27-6.72-19.87a10.29,10.29,0,0,1-.74-3.5c.09-3.24,4.37-5.15,6.78-3.31A3.73,3.73,0,0,1,488.91,199.64Z" transform="translate(-116.32 -71.16)"/><path class="cls-27" d="M485.93,193c4.92,2.52,8.62,17.47,8.62,17.47l-13.91,4.11-.39-23.54C480.6,191.07,485.81,193,485.93,193Z" transform="translate(-116.32 -71.16)"/><path class="cls-32" d="M463.89,207.39a1.18,1.18,0,0,1-1.5,1l-4.14-1.18a.88.88,0,0,0-.94.32,2,2,0,0,0-.34,1.62c.22,1.07-.63,2.57.08,3.24s-.5,1.94.94,2.74,5-.1,6.43.57,11.12,6.19,11.12,6.19L471,212.26l-4.08-2s-1.3-1.15-1.3-6c0-1.06-1.49-.56-1.47.34Z" transform="translate(-116.32 -71.16)"/><path class="cls-33" d="M495.13,230.87s3.51-6.57-.77-9.3-23.57-9.44-23.57-9.44l-2.19,5.08S489.55,232.27,495.13,230.87Z" transform="translate(-116.32 -71.16)"/></g><path class="cls-21" d="M476.8,164.93s-.28,11.91-4.36,17.11H455.88s-3.16-3.43-3.65-14.42c0,0-.74-6.65,4.19-7.42S474.43,157,476.8,164.93Z" transform="translate(-116.32 -71.16)"/><path class="cls-21" d="M454.08,162.69s2.19,8.88,13.7,7.14,18.26-9.53,14.39-11.4-6.26,1.69-9,0S454.08,162.69,454.08,162.69Z" transform="translate(-116.32 -71.16)"/><path class="cls-34" d="M464.44,164l-10.56,2.16s1,15.11,3.53,17.52a26.37,26.37,0,0,0,7,2.59,26.57,26.57,0,0,0,7-2.59c2.52-2.41,3.53-17.52,3.53-17.52Z" transform="translate(-116.32 -71.16)"/><polygon class="cls-21" points="356.37 94.13 357.52 103.6 359.1 93.7 356.37 94.13"/><path class="cls-35" d="M477.79,169.9c1,2.46-.62,7-4.44,7.9l1.33-8.24A1.72,1.72,0,0,1,477.79,169.9Z" transform="translate(-116.32 -71.16)"/><path class="cls-21" d="M458.77,165s13.23,8.46,20.33,0c0,0-1.31-2.61-2.3-4.11-1.71-2.57-2.41-5.35-5-7.32a7.12,7.12,0,0,0-4.77-1.37,11.86,11.86,0,0,0-4.54,1.22,14.87,14.87,0,0,0-3.75,3.3s-3.53-1.13-5.7,1.32-.58,10.49-.58,10.49l2.83,5.08Z" transform="translate(-116.32 -71.16)"/><polygon class="cls-36" points="348.06 102.01 346.89 108.52 348.11 109.63 349.25 108.41 348.06 102.01"/><path class="cls-37" d="M451.1,169.82c-1,2.46.61,7,4.44,7.9l-1.33-8.24A1.72,1.72,0,0,0,451.1,169.82Z" transform="translate(-116.32 -71.16)"/><rect class="cls-12" x="71.05" y="218.25" width="105.11" height="69.05" rx="3.21" ry="3.21"/><g class="cls-38"><path class="cls-39" d="M264,324.6a8.38,8.38,0,0,1,.54,1.31,80.07,80.07,0,0,1,2.46,9.61,102.47,102.47,0,0,1,2.14,12.71,20.78,20.78,0,0,1-.28,6.49,5.08,5.08,0,0,1-1.5,2.84c-1.53,1.27-3.88.58-5.13-.92s-1.53-3.42-2-5.25c-1.71-7.09-2.82-14.41-4.2-21.58a10.73,10.73,0,0,1-.28-3.74c.54-3.35,5.25-4.73,7.5-2.49A3.69,3.69,0,0,1,264,324.6Z" transform="translate(-116.32 -71.16)"/><path class="cls-40" d="M262,321.19c5.05,2.83,8.33,18.64,8.33,18.64l-14.72,3.76.52-24.68C256.52,319,261.9,321.12,262,321.19Z" transform="translate(-116.32 -71.16)"/><path class="cls-41" d="M222.7,320.55a9.29,9.29,0,0,0-1.23.7,78.6,78.6,0,0,0-7.86,6.05,101.62,101.62,0,0,0-9.52,8.69,20.6,20.6,0,0,0-3.78,5.29,5.11,5.11,0,0,0-.57,3.16c.43,1.94,2.7,2.85,4.61,2.43s3.31-1.75,4.79-2.92c5.71-4.52,11.09-9.61,16.61-14.4a10.85,10.85,0,0,0,2.51-2.77c1.65-3-1.21-7-4.37-6.59A3.9,3.9,0,0,0,222.7,320.55Z" transform="translate(-116.32 -71.16)"/><path class="cls-42" d="M226.34,319.07c-5.72-.88-18.05,9.54-18.05,9.54l9.28,12,14.79-19.74C232.06,320.7,226.48,319.09,226.34,319.07Z" transform="translate(-116.32 -71.16)"/><path class="cls-43" d="M210.13,313.33l-1.63-9.63a.9.9,0,0,0-.72-.74,2,2,0,0,0-1.69.41c-.92.69-2.72.56-3,1.53s-.28,5.66-.39,7.38,1.8,3.56,1.8,5.21-.12,5.66-.12,5.66l5.85-.66.05-4.76s2.43-3.25,2.4-6.66a.53.53,0,0,0-1-.28Z" transform="translate(-116.32 -71.16)"/><path class="cls-44" d="M211.32,333.38c-.51-5.93-1.1-11.17-1.1-11.17l-5.79.22s-.89,4.95-1.59,10.95Z" transform="translate(-116.32 -71.16)"/><rect class="cls-40" x="116.75" y="242.33" width="13.76" height="4.68"/><path class="cls-40" d="M240.44,315.5h-.13c-9.28.07-18.87,4.53-18.87,4.53,0,.68.09,1.36.13,2.05l1.05,15.74c.22,3.2.43,6.41.65,9.61.22,3.42.66,6.39-.37,9.73a4.39,4.39,0,0,0-.25,3.11,3.65,3.65,0,0,0,1.9,1.53c1.42.68,2.85,1.36,4.33,1.9,7.18,2.62,15.06,1.64,22.55.27,2.38-.43,4.95-1,6.56-2.92a3,3,0,0,0,.63-1.07,4.87,4.87,0,0,0-.36-2.82,20.84,20.84,0,0,1-.6-2.48c-.66-3.76-.15-7.73.11-11.52l.72-10.85q.42-6.13.82-12.28S249.72,315.57,240.44,315.5Z" transform="translate(-116.32 -71.16)"/><polygon class="cls-45" points="123.64 254.86 129.6 244.78 117.67 244.78 123.64 254.86"/><path class="cls-40" d="M238.72,323.94l-2.4-1.23-3-8.82S238.76,323.78,238.72,323.94Z" transform="translate(-116.32 -71.16)"/><polygon class="cls-40" points="116.96 242.73 120 251.55 115.81 254.15 115.33 242.91 116.75 242.33 116.96 242.73"/><path class="cls-40" d="M241.12,323.94l2.72-1.11,2.72-8.94S241.08,323.78,241.12,323.94Z" transform="translate(-116.32 -71.16)"/><polygon class="cls-40" points="130.24 242.73 127.52 251.67 131.39 254.15 131.87 242.91 130.45 242.33 130.24 242.73"/><rect class="cls-46" x="118.94" y="237.53" width="9.32" height="8.64"/><path class="cls-47" d="M226.41,348.77l-9.7,1.08a.91.91,0,0,0-.79.67,2.12,2.12,0,0,0,.31,1.72c.64.95.41,2.74,1.37,3.11s5.62.6,7.33.81,3.66-1.59,5.31-1.5,5.65.44,5.65.44l-.33-5.88-4.75-.32s-3.11-2.61-6.51-2.77a.53.53,0,0,0-.34,1Z" transform="translate(-116.32 -71.16)"/><path class="cls-48" d="M266.33,357.69s.8-7.77-4.44-8.71-26.61.21-26.61.21l-.11,5.79S261.48,361.27,266.33,357.69Z" transform="translate(-116.32 -71.16)"/><rect class="cls-49" x="77.32" y="233.86" width="29.77" height="43.39"/><rect class="cls-50" x="79.25" y="237.91" width="25.43" height="0.74"/><rect class="cls-50" x="79.25" y="240.01" width="25.43" height="0.74"/><rect class="cls-50" x="79.25" y="242.11" width="25.43" height="0.74"/><rect class="cls-50" x="79.25" y="244.21" width="25.43" height="0.74"/><rect class="cls-50" x="79.25" y="246.31" width="25.43" height="0.74"/><rect class="cls-50" x="79.25" y="248.41" width="25.43" height="0.74"/><rect class="cls-50" x="79.25" y="250.51" width="25.43" height="0.74"/><rect class="cls-50" x="79.25" y="252.61" width="25.43" height="0.74"/><rect class="cls-50" x="79.25" y="254.71" width="25.43" height="0.74"/><rect class="cls-50" x="79.25" y="256.81" width="25.43" height="0.74"/><rect class="cls-50" x="79.25" y="258.91" width="25.43" height="0.74"/><rect class="cls-50" x="79.25" y="261.01" width="25.43" height="0.74"/><rect class="cls-50" x="79.25" y="263.11" width="25.43" height="0.74"/><rect class="cls-50" x="79.25" y="265.21" width="25.43" height="0.74"/><rect class="cls-50" x="79.25" y="267.31" width="25.43" height="0.74"/><rect class="cls-50" x="79.25" y="269.41" width="25.43" height="0.74"/><rect class="cls-50" x="79.25" y="271.51" width="25.43" height="0.74"/></g><path class="cls-51" d="M240.15,290.61l-11.07,2.26s1,15.84,3.69,18.36a28.05,28.05,0,0,0,7.38,2.72,28.11,28.11,0,0,0,7.37-2.72c2.65-2.52,3.7-18.36,3.7-18.36Z" transform="translate(-116.32 -71.16)"/><polygon class="cls-21" points="132.47 220.84 133.68 230.76 135.33 220.39 132.47 220.84"/><path class="cls-52" d="M254.13,296.83c1.05,2.58-.64,7.36-4.65,8.28l1.39-8.64A1.8,1.8,0,0,1,254.13,296.83Z" transform="translate(-116.32 -71.16)"/><path class="cls-21" d="M234.2,291.65s13.87,8.87,21.31,0c0,0-1.38-2.73-2.42-4.3-1.79-2.7-2.52-5.61-5.21-7.67a7.4,7.4,0,0,0-5-1.44,12.4,12.4,0,0,0-4.76,1.27c-1.6.8-2.67,2.2-3.93,3.47,0,0-3.7-1.18-6,1.38s-.61,11-.61,11l3,5.31Z" transform="translate(-116.32 -71.16)"/><polygon class="cls-53" points="123.76 229.1 122.53 235.92 123.81 237.08 125.01 235.81 123.76 229.1"/><path class="cls-54" d="M226.16,296.75c-1,2.57.65,7.36,4.65,8.27l-1.39-8.63A1.8,1.8,0,0,0,226.16,296.75Z" transform="translate(-116.32 -71.16)"/><path class="cls-21" d="M333.42,351.82c-5.83-.71-9.62-3.06-11.27-7-4.61-11,6.87-32.79,11.68-40.26l.08-.13a1.07,1.07,0,0,0-.25-1.43l-2.11-1.58a1.06,1.06,0,0,0-1.53.28h0c-.77,1.19-18.73,29.39-12.1,45.19,2.37,5.65,7.41,9,15,9.91h0a1.06,1.06,0,0,0,1.19-.94l.3-2.87a1.06,1.06,0,0,0-.93-1.16Z" transform="translate(-116.32 -71.16)"/><path class="cls-40" d="M352.35,329.41H326.63c-7.11,0-12.87-7.88-12.87-17.61V258.57c0-9.72,5.76-17.61,12.87-17.61h25.72c7.11,0,12.87,7.89,12.87,17.61V311.8C365.22,321.53,359.46,329.41,352.35,329.41Z" transform="translate(-116.32 -71.16)"/><path class="cls-55" d="M360.57,320.26H334.85c-7.11,0-12.87-7.89-12.87-17.61V249.42a23.06,23.06,0,0,1,1.36-7.86c-5.51,2-9.58,8.84-9.58,17V311.8c0,9.73,5.76,17.61,12.87,17.61h25.72c5,0,9.39-4,11.51-9.76A9.69,9.69,0,0,1,360.57,320.26Z" transform="translate(-116.32 -71.16)"/><path class="cls-56" d="M352.69,317.72c.66-.12,1.31-.24,2-.34,3.35-.48,6.73-.78,10.11-1a23.79,23.79,0,0,0,.45-4.61V258.57a24.16,24.16,0,0,0-.39-4.31v1.27l-15.88-12c-.16-.21-5.92,2.53-6.63,2.84-14.83,6.58-11.49,26.17-11.45,39.13l.06,19.11c0,3.26.15,6.55,0,9.81-.07,2.07.31,3.35,1.53,4.47-1.75,2.35-2.18,5.54-2.26,8.38,0,.7,0,1.4,0,2.1h22.14c5.24,0,9.75-4.29,11.76-10.45C360.48,318.51,356.77,318.1,352.69,317.72Z" transform="translate(-116.32 -71.16)"/><rect class="cls-21" x="324.81" y="356.93" width="66.35" height="5.45" transform="translate(599.66 648.16) rotate(180)"/><rect class="cls-21" x="352.71" y="366.98" width="10.55" height="3.3" transform="translate(599.66 666.09) rotate(180)"/><rect class="cls-21" x="355.89" y="370.28" width="4.2" height="20.02" transform="translate(599.66 689.41) rotate(180)"/><rect class="cls-57" x="355.3" y="390.3" width="5.38" height="23.21" transform="translate(599.66 732.64) rotate(180)"/><polygon class="cls-21" points="238.93 291.22 244.41 291.22 251.19 291.22 248.44 295.81 244.41 295.81 238.93 295.81 234.9 295.81 232.15 291.22 238.93 291.22"/><path class="cls-40" d="M361.28,338.09h-.09l-.67,0-1.19,0h-2.68l-1.2,0-.66,0h-.09c-10.91.54-32.93,3.42-28.78,18.84h64.13C394.2,341.51,372.18,338.63,361.28,338.09Z" transform="translate(-116.32 -71.16)"/><path class="cls-58" d="M335.88,346.62c3.56-5.68,13.67-8.14,13.67-8.14-11.42,1.21-27.19,5.2-23.63,18.45h9C333.94,355.14,333.43,350.53,335.88,346.62Z" transform="translate(-116.32 -71.16)"/><path class="cls-21" d="M359.5,412.29l26.89,12.22a7,7,0,0,0-1.52-4.69c-1.85-2.2-15.65-8.64-25.37-12.85Z" transform="translate(-116.32 -71.16)"/><path class="cls-57" d="M378.71,424.75a3.32,3.32,0,1,0,3.32-3.32A3.32,3.32,0,0,0,378.71,424.75Z" transform="translate(-116.32 -71.16)"/><path class="cls-21" d="M356.48,407c-9.73,4.21-23.53,10.65-25.37,12.85a7,7,0,0,0-1.52,4.69l26.89-12.22Z" transform="translate(-116.32 -71.16)"/><path class="cls-57" d="M337.26,424.75a3.32,3.32,0,1,1-3.32-3.32A3.32,3.32,0,0,1,337.26,424.75Z" transform="translate(-116.32 -71.16)"/><path class="cls-11" d="M400,291.19a22.37,22.37,0,0,1-5.39-3.91A67.92,67.92,0,0,1,384,272.17a90.78,90.78,0,0,1-6-13.82c-1.41-4.18-10.28-13.72-.85-13.92a7.57,7.57,0,0,1,5.68,2.92c6.3,7.14,23,32.81,23,32.81Z" transform="translate(-116.32 -71.16)"/><path class="cls-59" d="M436.8,252.1l13.52-5.85s.49,2.24-.62,3.43-1.13,2.54-2,3.72-1.53,4.77-3.4,6.35-5.6,1-7.5,2.35-5.73,4.62-5.73,4.62l-4.84-7,5.41-4.09s2.22-7.36,7.59-9.47Z" transform="translate(-116.32 -71.16)"/><path class="cls-11" d="M399.71,291.23s-7-8.63-1.51-13.84,31.87-20.48,31.87-20.48l4.42,8S408.27,291.71,399.71,291.23Z" transform="translate(-116.32 -71.16)"/><path class="cls-60" d="M437.09,318c-12.46-4.11-25.8-5.48-38.83-6.52-6.47-.51-14-1.65-20.48-2.18-14.32-1.18-25.43-5.29-23.23,9.53.8,5.39,1.94,11.29,5.19,15.92,3.53,5,9.66,7.18,15.5,8.19,6.6,1.14,13.4,1,20.06.74a88.27,88.27,0,0,0,17.45-2.11c7.18-1.71,14.34-3.58,21.4-5.74C443,326.85,437.09,318,437.09,318Z" transform="translate(-116.32 -71.16)"/><path class="cls-60" d="M437.09,318s2.88-.37,3.33,7.31,4.45,74.26,4.45,74.26l-16.35,2.25s-14.1-47.78-7.89-75C420.63,326.76,426.24,313.75,437.09,318Z" transform="translate(-116.32 -71.16)"/><path class="cls-61" d="M406.79,323l-.29-.28c-2.19-2-5.55-2.54-8.36-3-20.24-3.32-30.22-5-50.68-6.46-3.42-.24-6.94-1.05-9.27,1.95-1.83,2.36-2.26,5.63-2.35,8.53a23.21,23.21,0,0,0,1.39,9.69,19.49,19.49,0,0,0,7.89,8.64c7.88,4.91,17.64,5.68,26.92,5.3s7.75-1.64,16.62-4c7-1.88,15.79-3.28,18.86-10.77C408.75,329.55,409.21,325.56,406.79,323Z" transform="translate(-116.32 -71.16)"/><path class="cls-62" d="M342.67,250.06c3.55-6,10.08-8,16.72-7.73a49.3,49.3,0,0,1,10.71,1.83c3.37.91,7.76,1.7,10.36,4.16,3.19,3,3.83,7.51,4.1,11.66.3,4.47.37,8.93.25,13.4-.23,8.62-.83,17.19-.53,25.82.16,4.46.33,9.69-4.47,11.81-2.51,1.11-5.38,1.18-8.07,1.33a94.08,94.08,0,0,0-13.29,1.54c-4.1.82-8.06,2.46-12.29,2.56-3.59.08-6.6-1.63-6.67-5.45s2.16-8.6,2.79-12.53a65.87,65.87,0,0,0,.08-22.84C340.74,267.32,338,257.93,342.67,250.06Z" transform="translate(-116.32 -71.16)"/><path class="cls-11" d="M386.53,254.75c-.41-5.59-12.82-12.92-16-13.37L370.44,252l-15.87-12c-.17-.2-5.93,2.53-6.64,2.85C333.1,249.41,336.44,269,336.48,282l.06,19.1c0,3.26.16,6.55,0,9.81-.1,2.92.7,4.25,3.45,5.81,3.06,1.73,6.13.6,9.23-.32a79.08,79.08,0,0,1,11-2.56,128.88,128.88,0,0,1,15-1.18c4.22-.12,7.85.31,9.58-4.37a16.3,16.3,0,0,0,.74-6C385.17,284.09,387.86,272.92,386.53,254.75Z" transform="translate(-116.32 -71.16)"/><polygon class="cls-63" points="257.54 178.11 254.49 187.99 249.84 178.34 252.87 178.25 254.13 180.79 254.09 178.22 257.54 178.11"/><polygon class="cls-64" points="255.06 185.15 253.27 185.15 250.92 226.98 255.94 231.91 260.29 226.4 255.06 185.15"/><path class="cls-65" d="M370.52,230.75q0,3,.11,6s.41,8.89-.79,10.14c-2.13,2.22-12.61,0-12.61-6.93l.35-15.9Z" transform="translate(-116.32 -71.16)"/><path class="cls-66" d="M358,210.34l.67,6.71,1,10.23.29,2.88c8.64,9.54,19.46,8.5,22.13,4.16s-.07-25.38-.07-25.38Z" transform="translate(-116.32 -71.16)"/><polygon class="cls-67" points="263.66 146.67 263.43 155.71 268.59 155.84 263.66 146.67"/><path class="cls-21" d="M362.34,207.45l.26,13.37-3.31-4.45-2.08,21.2s-10.88-19.42-6.79-28.75l1.54-1.17s-4.58-8.73,10.91-9.74,25.28-1.34,25,5.21A34.73,34.73,0,0,1,386,213.53Z" transform="translate(-116.32 -71.16)"/><path class="cls-68" d="M354.76,216.29c-1.75,2.61-.63,8,4.83,9.58l-.26-9.49A2.86,2.86,0,0,0,354.76,216.29Z" transform="translate(-116.32 -71.16)"/><polygon class="cls-21" points="242.1 137.92 257.47 141.21 250.53 133.54 242.1 137.92"/><path class="cls-11" d="M360.74,306.62a24.38,24.38,0,0,1-5.37-4.95A71.86,71.86,0,0,1,345.94,284a96.39,96.39,0,0,1-4.59-15.63c-.94-4.68-5.05-20.12,5.37-19a8.39,8.39,0,0,1,5.83,3.92c5.9,8.53,16.26,42.34,16.26,42.34Z" transform="translate(-116.32 -71.16)"/><path class="cls-69" d="M398.06,256.64l14.77-6.1s.56,2.46-.65,3.73-1.22,2.76-2.13,4-1.63,5.19-3.67,6.88-6.14.92-8.21,2.4-6.24,4.93-6.24,4.93l-5.37-7.71,5.89-4.36s2.37-8,8.23-10.19Z" transform="translate(-116.32 -71.16)"/><path class="cls-11" d="M352.4,301.85s-7.94-9.81-1.83-15.51,19.53-10.76,39.59-25.08l5,9.1S362,302.57,352.4,301.85Z" transform="translate(-116.32 -71.16)"/><path class="cls-61" d="M413.17,323.12a4.47,4.47,0,0,1,1,.95c1.42,1.85,1,4.91.74,7-1,7.63-11.64,69.15-11.64,69.15l-14.52.2c-.69-6.47-.94-13-1-19.51-.19-12.91.41-26,3.2-38.67,1.75-7.91,3.63-16.44,11.88-19.82C406,321.15,410.26,321,413.17,323.12Z" transform="translate(-116.32 -71.16)"/><path class="cls-70" d="M370.44,252l4.11-3.22-3.85-10.58S370.25,251.75,370.44,252Z" transform="translate(-116.32 -71.16)"/><polygon class="cls-71" points="254.38 166.99 258.23 177.57 265.09 178.9 254.38 166.2 254.38 166.99"/><polygon class="cls-72" points="236.86 168.89 244.97 182.54 252.03 176.57 240.41 166.12 236.86 168.89"/><polygon class="cls-73" points="252.03 176.57 254.13 180.79 249.84 178.34 252.03 176.57"/><polygon class="cls-6" points="256.75 356.06 256.71 356.91 261.4 356.91 268.08 235.71 261.49 235.71 256.75 356.06"/><polygon class="cls-6" points="360.08 356.06 360.05 356.91 364.73 356.91 371.41 235.71 364.82 235.71 360.08 356.06"/><polygon class="cls-6" points="426.96 353.59 422.55 235.71 415.96 235.71 422.14 353.59 426.96 353.59"/><rect class="cls-11" x="226.16" y="225.06" width="204.1" height="7.41"/><rect class="cls-57" x="230.74" y="232.47" width="199.52" height="6.22"/><path class="cls-11" d="M305.7,162a1,1,0,0,1-.33-.06.9.9,0,0,1-.6-.87V149a.92.92,0,0,1,.92-.92h21.25a.93.93,0,0,1,.93.92v8.52a.93.93,0,0,1-.93.92H309.13l-2.73,3.21A.92.92,0,0,1,305.7,162Zm.23-12.73V160.4l2.39-2.8a.92.92,0,0,1,.71-.33h17.68v-8Z" transform="translate(-116.32 -71.16)"/><path class="cls-11" d="M312.19,153.46A1.49,1.49,0,1,1,310.7,152,1.48,1.48,0,0,1,312.19,153.46Z" transform="translate(-116.32 -71.16)"/><path class="cls-11" d="M317.8,153.46a1.49,1.49,0,1,1-1.48-1.49A1.48,1.48,0,0,1,317.8,153.46Z" transform="translate(-116.32 -71.16)"/><path class="cls-11" d="M323.42,153.46a1.49,1.49,0,1,1-1.49-1.49A1.49,1.49,0,0,1,323.42,153.46Z" transform="translate(-116.32 -71.16)"/><path class="cls-11" d="M476,154.85a1,1,0,0,1-.35-.06,1,1,0,0,1-.66-.95V140.69a1,1,0,0,1,1-1h23.21a1,1,0,0,1,1,1V150a1,1,0,0,1-1,1H479.78l-3,3.5A1,1,0,0,1,476,154.85Zm.25-13.91v12.2l2.62-3.06a1,1,0,0,1,.77-.35H499v-8.79Z" transform="translate(-116.32 -71.16)"/><path class="cls-11" d="M483.12,145.56a1.63,1.63,0,1,1-1.63-1.62A1.62,1.62,0,0,1,483.12,145.56Z" transform="translate(-116.32 -71.16)"/><path class="cls-11" d="M489.25,145.56a1.63,1.63,0,1,1-1.63-1.62A1.62,1.62,0,0,1,489.25,145.56Z" transform="translate(-116.32 -71.16)"/><path class="cls-11" d="M495.38,145.56a1.63,1.63,0,1,1-1.63-1.62A1.62,1.62,0,0,1,495.38,145.56Z" transform="translate(-116.32 -71.16)"/><path class="cls-11" d="M254.16,280.83a1,1,0,0,1-.34-.06,1,1,0,0,1-.63-.91V267.25a1,1,0,0,1,1-1h22.26a1,1,0,0,1,1,1v8.91a1,1,0,0,1-1,1H257.76l-2.87,3.35A1,1,0,0,1,254.16,280.83Zm.24-13.34v11.7l2.51-2.93a1,1,0,0,1,.74-.34h18.52v-8.43Z" transform="translate(-116.32 -71.16)"/><path class="cls-11" d="M261,271.92a1.56,1.56,0,1,1-1.56-1.56A1.56,1.56,0,0,1,261,271.92Z" transform="translate(-116.32 -71.16)"/><path class="cls-11" d="M266.85,271.92a1.56,1.56,0,1,1-1.56-1.56A1.56,1.56,0,0,1,266.85,271.92Z" transform="translate(-116.32 -71.16)"/><path class="cls-11" d="M272.73,271.92a1.56,1.56,0,1,1-1.56-1.56A1.56,1.56,0,0,1,272.73,271.92Z" transform="translate(-116.32 -71.16)"/><polyline class="cls-21" points="294.92 191.51 286.2 222.12 268.88 222.9 268.88 225.06 332.04 225.06 341.2 191.51 294.36 191.51"/><path class="cls-61" d="M493.63,270.74l1,.09c-.27-4.56-1.77-20.7-9.63-32.78,0,0,8,14.64,8.1,32.07Z" transform="translate(-116.32 -71.16)"/><path class="cls-61" d="M493,270.16s3.3-16.34-1.41-30.93c0,0,3.68,14.56.51,28.82Z" transform="translate(-116.32 -71.16)"/><path class="cls-61" d="M501.22,271.36a76,76,0,0,1,10.38-19.64c-5.38,5.9-9,13.34-11.39,19.56Z" transform="translate(-116.32 -71.16)"/><path class="cls-12" d="M487.75,270.27l5.77.47-.12-1.23L492.1,257s-.56-4.34-1.15-5.18-2.55-2.49-2.8-2.88-1.66,3.07-1.8,3.58,1.15,14.14,1.15,14.14S487.58,268.1,487.75,270.27Z" transform="translate(-116.32 -71.16)"/><polygon class="cls-11" points="373.97 199.31 372.8 183.27 372.67 183.29 373.65 199.28 373.97 199.31"/><path class="cls-12" d="M501.51,271.39c.47-8.62.51-14.48.49-16.15,0-4.14.5-13,0-16.16,0,0-1.48-3.21-2.07-4.18l-1.28-.89a27.92,27.92,0,0,0-2.58,5c-.34,1.07-2.27,17.34-3.92,31.67Z" transform="translate(-116.32 -71.16)"/><polygon class="cls-11" points="380.75 199.86 382.82 166.21 382.82 166.21 382.82 166.21 382.7 166.21 380.38 199.83 380.75 199.86"/><path class="cls-12" d="M480.69,269.69l8.19.67-.28-1.1s-3.76-17-4.93-19.28a5.28,5.28,0,0,0-3.93-2.5l-.35.05a43,43,0,0,0-.74,10.39S479.69,263.94,480.69,269.69Z" transform="translate(-116.32 -71.16)"/><polygon class="cls-11" points="369.97 198.99 364.46 178.05 364.46 178.05 364.46 178.05 364.34 178.12 369.59 198.95 369.97 198.99"/><path class="cls-61" d="M479.61,269.6l1.38.12c-2.28-4.39-7.46-12.85-14.48-15C466.51,254.77,474.31,258.44,479.61,269.6Z" transform="translate(-116.32 -71.16)"/><path class="cls-61" d="M480.77,269.7l1.66.13c-2.5-7.78-7.54-19.93-15.93-25.4C466.5,244.43,475.9,252.55,480.77,269.7Z" transform="translate(-116.32 -71.16)"/><path class="cls-40" d="M475.87,271.92,480,294.56a2,2,0,0,0,2,1.66h17a2,2,0,0,0,2-1.66l4.18-22.64a2,2,0,0,0-2-2.39H477.86A2,2,0,0,0,475.87,271.92Z" transform="translate(-116.32 -71.16)"/><path class="cls-74" d="M483.24,294.78l-4.17-22.64a2,2,0,0,1,2-2.39h-3a2,2,0,0,0-2,2.39l4.17,22.64a2,2,0,0,0,2,1.66h3A2,2,0,0,1,483.24,294.78Z" transform="translate(-116.32 -71.16)"/><path class="cls-75" d="M592.92,267.73a10.16,10.16,0,0,1-5.8-3.06,12.14,12.14,0,0,1-3.24-5.9,12.18,12.18,0,0,1-3.23,5.9,10.2,10.2,0,0,1-5.81,3.06l.08.08-.08.09a10.2,10.2,0,0,1,5.81,3.06,12.12,12.12,0,0,1,3.23,5.89,12.07,12.07,0,0,1,3.24-5.89,10.16,10.16,0,0,1,5.8-3.06l-.08-.09Z" transform="translate(-116.32 -71.16)"/><path class="cls-75" d="M557.88,159.28a5.83,5.83,0,0,1-3.3-1.74,6.92,6.92,0,0,1-1.83-3.35,7,7,0,0,1-1.84,3.35,5.81,5.81,0,0,1-3.3,1.74l0,0,0,.05a5.81,5.81,0,0,1,3.3,1.74,7,7,0,0,1,1.84,3.35,6.92,6.92,0,0,1,1.83-3.35,5.83,5.83,0,0,1,3.3-1.74l0-.05Z" transform="translate(-116.32 -71.16)"/><path class="cls-75" d="M188.46,212.32a5.73,5.73,0,0,1-3.3-1.74,6.92,6.92,0,0,1-1.84-3.35,6.83,6.83,0,0,1-1.84,3.35,5.73,5.73,0,0,1-3.3,1.74l0,.05,0,0a5.81,5.81,0,0,1,3.3,1.74,6.87,6.87,0,0,1,1.84,3.35,7,7,0,0,1,1.84-3.35,5.81,5.81,0,0,1,3.3-1.74l0,0Z" transform="translate(-116.32 -71.16)"/><path class="cls-75" d="M350,97.2a5.75,5.75,0,0,1-3.3-1.73,6.91,6.91,0,0,1-1.84-3.35,7,7,0,0,1-1.84,3.35,5.75,5.75,0,0,1-3.3,1.73l0,0,0,0a5.81,5.81,0,0,1,3.3,1.74,7,7,0,0,1,1.84,3.35A6.87,6.87,0,0,1,346.74,99,5.81,5.81,0,0,1,350,97.3l-.05,0Z" transform="translate(-116.32 -71.16)"/><path class="cls-75" d="M392,172.91a5.73,5.73,0,0,1-3.3-1.74,7,7,0,0,1-1.84-3.35,6.83,6.83,0,0,1-1.84,3.35,5.72,5.72,0,0,1-3.29,1.74l0,.05,0,0a5.79,5.79,0,0,1,3.29,1.74,6.87,6.87,0,0,1,1.84,3.35,7,7,0,0,1,1.84-3.35A5.81,5.81,0,0,1,392,173l0,0Z" transform="translate(-116.32 -71.16)"/><path class="cls-75" d="M162,339.17a10.2,10.2,0,0,1-5.81-3.06,12.2,12.2,0,0,1-3.23-5.89,12.2,12.2,0,0,1-3.23,5.89,10.2,10.2,0,0,1-5.81,3.06l.08.08-.08.09a10.2,10.2,0,0,1,5.81,3.06,12.12,12.12,0,0,1,3.23,5.89,12.12,12.12,0,0,1,3.23-5.89,10.2,10.2,0,0,1,5.81-3.06l-.08-.09Z" transform="translate(-116.32 -71.16)"/></g></g></svg>